<?xml version="1.0" encoding="UTF-8"?>
<svg width="65px" height="77px" viewBox="0 0 65 77" version="1.1" xmlns="http://www.w3.org/2000/svg" xmlns:xlink="http://www.w3.org/1999/xlink">
    <!-- Generator: Sketch 43.2 (39069) - http://www.bohemiancoding.com/sketch -->
    <title>Combined Shape</title>
    <desc>Created with Sketch.</desc>
    <defs>
        <linearGradient x1="50%" y1="0%" x2="50%" y2="100%" id="linearGradient-1">
            <stop stop-color="#FFFFFF" stop-opacity="0.5" offset="0%"></stop>
            <stop stop-color="#000000" stop-opacity="0.5" offset="100%"></stop>
        </linearGradient>
        <linearGradient x1="97.735568%" y1="82.6266635%" x2="0%" y2="22.4745263%" id="linearGradient-2">
            <stop stop-color="#FFFFFF" stop-opacity="0.5" offset="0%"></stop>
            <stop stop-color="#000000" stop-opacity="0.5" offset="100%"></stop>
        </linearGradient>
        <path d="M34.5964953,67.9231272 C37.8699539,65.3164843 41.144462,62.369427 44.1917351,59.1528609 C52.70458,50.1670802 57.75,40.9171436 57.75,32.0833333 C57.7499998,17.908025 46.2586418,6.4166671 32.0833333,6.4166671 C17.9080249,6.4166671 6.41666688,17.908025 6.41666667,32.0833333 C6.41666667,40.9171436 11.4620866,50.1670802 19.9749315,59.1528609 C23.0222047,62.369427 26.2967128,65.3164843 29.5701713,67.9231272 C30.4636739,68.63462 31.3059172,69.2794997 32.0833333,69.8538122 C32.8607495,69.2794997 33.7029928,68.63462 34.5964953,67.9231272 Z M48.8499315,63.5658891 C45.5807984,67.0166407 42.0877284,70.1604037 38.5936088,72.9427582 C37.3687371,73.918119 36.2290572,74.7801845 35.2025048,75.5215835 C34.5769271,75.9733896 34.1210914,76.2890981 33.8629965,76.4611614 C32.7853192,77.1796129 31.3813475,77.1796129 30.3036702,76.4611614 C30.0455752,76.2890981 29.5897396,75.9733896 28.9641618,75.5215835 C27.9376094,74.7801845 26.7979296,73.918119 25.5730578,72.9427582 C22.0789382,70.1604037 18.5858683,67.0166407 15.3167351,63.5658891 C5.78270505,53.5021906 -7.12393107e-16,42.9005647 0,32.0833333 C2.64035698e-07,14.3641977 14.3641978,4.30271029e-07 32.0833333,4.30271029e-07 C49.8024689,4.3027103e-07 64.1666664,14.3641977 64.1666667,32.0833333 C64.1666667,42.9005647 58.3839616,53.5021906 48.8499315,63.5658891 Z M32.0833333,44.9166667 C39.1709876,44.9166667 44.9166667,39.1709876 44.9166667,32.0833333 C44.9166667,24.995679 39.1709876,19.25 32.0833333,19.25 C24.995679,19.25 19.25,24.995679 19.25,32.0833333 C19.25,39.1709876 24.995679,44.9166667 32.0833333,44.9166667 Z M32.0833333,38.5 C28.5395062,38.5 25.6666667,35.6271605 25.6666667,32.0833333 C25.6666667,28.5395062 28.5395062,25.6666667 32.0833333,25.6666667 C35.6271605,25.6666667 38.5,28.5395062 38.5,32.0833333 C38.5,35.6271605 35.6271605,38.5 32.0833333,38.5 Z" id="path-3"></path>
    </defs>
    <g id="Page-1" stroke="none" stroke-width="1" fill="none" fill-rule="evenodd">
        <g id="landingpage-copy" transform="translate(-704.000000, -340.000000)" fill-rule="nonzero">
            <g id="map-pin" transform="translate(704.000000, 340.000000)">
                <g id="Combined-Shape">
                    <use fill="#AB18FF" fill-rule="evenodd" xlink:href="#path-3"></use>
                    <use fill="url(#linearGradient-1)" fill-rule="evenodd" xlink:href="#path-3"></use>
                    <use fill="url(#linearGradient-2)" fill-rule="evenodd" style="mix-blend-mode: overlay;" xlink:href="#path-3"></use>
                </g>
            </g>
        </g>
    </g>
</svg>