<?xml version="1.0" encoding="UTF-8"?>
<svg width="77px" height="77px" viewBox="0 0 77 77" version="1.1" xmlns="http://www.w3.org/2000/svg" xmlns:xlink="http://www.w3.org/1999/xlink">
    <!-- Generator: Sketch 43.2 (39069) - http://www.bohemiancoding.com/sketch -->
    <title>clock</title>
    <desc>Created with Sketch.</desc>
    <defs>
        <linearGradient x1="50%" y1="0%" x2="50%" y2="100%" id="linearGradient-1">
            <stop stop-color="#FFFFFF" stop-opacity="0.5" offset="0%"></stop>
            <stop stop-color="#000000" stop-opacity="0.5" offset="100%"></stop>
        </linearGradient>
        <linearGradient x1="97.735568%" y1="82.6266635%" x2="0%" y2="22.4745263%" id="linearGradient-2">
            <stop stop-color="#FFFFFF" stop-opacity="0.5" offset="0%"></stop>
            <stop stop-color="#000000" stop-opacity="0.5" offset="100%"></stop>
        </linearGradient>
        <path d="M38.5,77 C17.2370371,77 0,59.7629629 0,38.5 C0,17.2370371 17.2370371,0 38.5,0 C59.7629629,0 77,17.2370371 77,38.5 C77,59.7629629 59.7629629,77 38.5,77 Z M38.5,70 C55.8969696,70 70,55.8969696 70,38.5 C70,21.1030304 55.8969696,7 38.5,7 C21.1030304,7 7,21.1030304 7,38.5 C7,55.8969696 21.1030304,70 38.5,70 Z M42,17.5 L42,37.0502525 L51.4748737,46.5251263 C52.8417088,47.8919613 52.8417088,50.1080387 51.4748737,51.4748737 C50.1080387,52.8417088 47.8919613,52.8417088 46.5251263,51.4748737 L36.0251263,40.9748737 C35.3687489,40.3184964 35,39.4282577 35,38.5 L35,17.5 C35,15.5670034 36.5670034,14 38.5,14 C40.4329966,14 42,15.5670034 42,17.5 Z" id="path-3"></path>
    </defs>
    <g id="Page-1" stroke="none" stroke-width="1" fill="none" fill-rule="evenodd">
        <g id="landingpage-copy" transform="translate(-982.000000, -340.000000)" fill-rule="nonzero">
            <g id="clock" transform="translate(982.000000, 340.000000)">
                <g id="Combined-Shape">
                    <use fill="#AB18FF" fill-rule="evenodd" xlink:href="#path-3"></use>
                    <use fill="url(#linearGradient-1)" fill-rule="evenodd" xlink:href="#path-3"></use>
                    <use fill="url(#linearGradient-2)" fill-rule="evenodd" style="mix-blend-mode: overlay;" xlink:href="#path-3"></use>
                </g>
            </g>
        </g>
    </g>
</svg>