<?xml version="1.0" encoding="UTF-8"?>
<svg width="93px" height="77px" viewBox="0 0 93 77" version="1.1" xmlns="http://www.w3.org/2000/svg" xmlns:xlink="http://www.w3.org/1999/xlink">
    <!-- Generator: Sketch 43.2 (39069) - http://www.bohemiancoding.com/sketch -->
    <title>users</title>
    <desc>Created with Sketch.</desc>
    <defs>
        <linearGradient x1="50%" y1="0%" x2="50%" y2="100%" id="linearGradient-1">
            <stop stop-color="#FFFFFF" stop-opacity="0.5" offset="0%"></stop>
            <stop stop-color="#000000" stop-opacity="0.5" offset="100%"></stop>
        </linearGradient>
        <linearGradient x1="97.735568%" y1="82.6266635%" x2="0%" y2="22.4745263%" id="linearGradient-2">
            <stop stop-color="#FFFFFF" stop-opacity="0.5" offset="0%"></stop>
            <stop stop-color="#000000" stop-opacity="0.5" offset="100%"></stop>
        </linearGradient>
        <path d="M69.3,73.15 C69.3,75.2762963 67.5762963,77 65.45,77 C63.3237037,77 61.6,75.2762963 61.6,73.15 L61.6,65.45 C61.6,59.0711111 56.4288889,53.9 50.05,53.9 L19.25,53.9 C12.8711111,53.9 7.7,59.0711111 7.7,65.45 L7.7,73.15 C7.7,75.2762963 5.97629629,77 3.85,77 C1.72370371,77 0,75.2762963 0,73.15 L0,65.45 C1.28230759e-15,54.8185186 8.61851857,46.2 19.25,46.2 L50.05,46.2 C60.6814814,46.2 69.3,54.8185186 69.3,65.45 L69.3,73.15 Z M34.65,38.5 C24.0185186,38.5 15.4,29.8814814 15.4,19.25 C15.4,8.61851857 24.0185186,0 34.65,0 C45.2814814,0 53.9,8.61851857 53.9,19.25 C53.9,29.8814814 45.2814814,38.5 34.65,38.5 Z M34.65,30.8 C41.0288889,30.8 46.2,25.6288889 46.2,19.25 C46.2,12.8711111 41.0288889,7.7 34.65,7.7 C28.2711111,7.7 23.1,12.8711111 23.1,19.25 C23.1,25.6288889 28.2711111,30.8 34.65,30.8 Z M92.4,73.15 C92.4,75.2762963 90.6762963,77 88.55,77 C86.4237037,77 84.7,75.2762963 84.7,73.15 L84.7000011,65.4528717 C84.6960749,60.1892992 81.133935,55.5941388 76.0375011,54.2782467 C73.9787234,53.7466733 72.7406798,51.6467788 73.2722533,49.5880011 C73.8038267,47.5292234 75.9037212,46.2911798 77.9624989,46.8227533 C86.4565556,49.0159066 92.3934554,56.6745074 92.4,65.45 L92.4,73.15 Z M60.6450491,8.0801875 C58.5851996,7.5527827 57.3429077,5.45539866 57.8703125,3.39554914 C58.3977173,1.33569961 60.4951013,0.0934077011 62.5549509,0.6208125 C71.072666,2.8016921 77.0301965,10.4767699 77.0301965,19.26925 C77.0301965,28.0617301 71.072666,35.7368079 62.5549509,37.9176875 C60.4951013,38.4450923 58.3977173,37.2028004 57.8703125,35.1429509 C57.3429077,33.0831013 58.5851996,30.9857173 60.6450491,30.4583125 C65.7556782,29.1497847 69.3301965,24.5447381 69.3301965,19.26925 C69.3301965,13.9937619 65.7556782,9.38871526 60.6450491,8.0801875 Z" id="path-3"></path>
    </defs>
    <g id="Page-1" stroke="none" stroke-width="1" fill="none" fill-rule="evenodd">
        <g id="landingpage-copy" transform="translate(-396.000000, -340.000000)" fill-rule="nonzero">
            <g id="users" transform="translate(396.000000, 340.000000)">
                <g id="Combined-Shape">
                    <use fill="#AB18FF" fill-rule="evenodd" xlink:href="#path-3"></use>
                    <use fill="url(#linearGradient-1)" fill-rule="evenodd" xlink:href="#path-3"></use>
                    <use fill="url(#linearGradient-2)" fill-rule="evenodd" style="mix-blend-mode: overlay;" xlink:href="#path-3"></use>
                </g>
            </g>
        </g>
    </g>
</svg>