<?xml version="1.0" encoding="UTF-8"?>
<svg width="15px" height="15px" viewBox="0 0 15 15" version="1.1" xmlns="http://www.w3.org/2000/svg" xmlns:xlink="http://www.w3.org/1999/xlink">
    <!-- Generator: Sketch 43.2 (39069) - http://www.bohemiancoding.com/sketch -->
    <title>Combined Shape</title>
    <desc>Created with Sketch.</desc>
    <defs></defs>
    <g id="Page-1" stroke="none" stroke-width="1" fill="none" fill-rule="evenodd" opacity="0.96">
        <g id="landingpage" transform="translate(-549.000000, -154.000000)" fill="#FF7C68">
            <g id="background" transform="translate(0.000000, -1.000000)">
                <g id="Group" transform="translate(38.000000, 0.000000)">
                    <path d="M520.316816,160.622646 L520.316816,154.827169 C520.316816,153.957704 519.597274,153.229789 518.709673,153.229789 C517.815885,153.229789 517.10253,153.944961 517.10253,154.827169 L517.10253,160.622646 L511.307053,160.622646 C510.437588,160.622646 509.709673,161.342189 509.709673,162.229789 C509.709673,163.123578 510.424845,163.836932 511.307053,163.836932 L517.10253,163.836932 L517.10253,169.632409 C517.10253,170.501874 517.822073,171.229789 518.709673,171.229789 C519.603462,171.229789 520.316816,170.514618 520.316816,169.632409 L520.316816,163.836932 L526.112293,163.836932 C526.981758,163.836932 527.709673,163.11739 527.709673,162.229789 C527.709673,161.336001 526.994502,160.622646 526.112293,160.622646 L520.316816,160.622646 Z" id="Combined-Shape" transform="translate(518.709673, 162.229789) rotate(-228.000000) translate(-518.709673, -162.229789) "></path>
                </g>
            </g>
        </g>
    </g>
</svg>